<!-- Generator: Adobe Illustrator 21.0.0, SVG Export Plug-In  -->
<svg version="1.1"
	 xmlns="http://www.w3.org/2000/svg" xmlns:xlink="http://www.w3.org/1999/xlink" xmlns:a="http://ns.adobe.com/AdobeSVGViewerExtensions/3.0/"
	 x="0px" y="0px" width="405.5px" height="540.3px" viewBox="0 0 405.5 540.3"
	 style="overflow:scroll;enable-background:new 0 0 405.5 540.3;" xml:space="preserve">
<style type="text/css">
	.st0{fill:#283992;}
</style>
<defs>
</defs>
<path id="beat_circle_1_" class="st0" d="M134.1,188.6c-45.1,0-81.8,36.7-81.8,81.8c0,45.1,36.7,81.8,81.8,81.8
	c45.1,0,81.8-36.7,81.8-81.8C215.9,225.3,179.2,188.6,134.1,188.6z"/>
<path id="XMLID_3_" class="st0" d="M134.5,182.3c47.5,0,86.3,37.8,88,84.9h47.8c1.2-98.7,55.2-184.6,135.1-230.9
	C365.7,13.2,319.6,0,270.3,0C122.1,0,1.7,119.3,0,267.2h46.5C48.2,220.1,87,182.3,134.5,182.3z"/>
<path id="XMLID_2_" class="st0" d="M134.5,358.1c47.5,0,86.3-37.8,88-84.9h47.8c1.2,98.7,55.2,184.6,135.1,230.9
	c-39.8,23-85.9,36.3-135.2,36.3C122.1,540.3,1.7,421,0,273.2h46.5C48.2,320.3,87,358.1,134.5,358.1z"/>
</svg>
